<?xml version="1.0" encoding="UTF-8"?>
<svg id="Layer_1" xmlns="http://www.w3.org/2000/svg" version="1.1" viewBox="0 0 3840 2160">
  <!-- Generator: Adobe Illustrator 30.3.0, SVG Export Plug-In . SVG Version: 2.1.3 Build 182)  -->
  <defs>
    <style>
      .st0 {
        fill: #e96f24;
      }

      .st1 {
        fill: #649646;
        opacity: .7;
      }

      .st2 {
        fill: #fff;
      }

      .st3 {
        opacity: .5;
      }

      .st4 {
        fill: #5686a0;
        stroke: #5686a0;
        stroke-miterlimit: 10;
        stroke-width: .98px;
      }
    </style>
  </defs>
  <rect class="st4" width="3840" height="2160"/>
  <path class="st0" d="M2644.64,209.27c20.79-46.29,37.19-94.5,62.59-138.84,10.72-18.71,22.35-27.1,43.75-24.2,10.74,1.46,21.69,1,35.19,1.51-20.47,33.92-41.03,65.06-58.66,97.81-41.04,76.2-70.07,157.41-93.97,240.84-23.75,82.91-59.97,158.94-128.15,215.11-23.65,19.49-49.12,36.28-80.54,44.08,110.84-78.68,159.38-193.57,186.3-321.2,11.16-38.38,22.33-76.75,33.49-115.13Z"/>
  <path class="st0" d="M741.45,1040.9c85.98,108.63,193.29,191.39,313.33,258.83,48.91,27.47,100.57,49.02,155.85,71.32-17.21,9.33-29.86,1.64-41.93-1.64-269.21-73.02-476.08-226.52-610.01-473.8-3.6-6.65-6.97-13.45-10.07-20.36-25.63-57.15-25.21-60.9,14.12-120.03,27.94,54.47,49.17,110.83,85.45,158.73,26.96,45.35,57.12,88.35,93.25,126.96Z"/>
  <path class="st0" d="M3163.5,1099.51c37.51-46.51,71.49-95.23,98.7-150.53-4.75,55.09-8.45,110.31-15.12,165.16-1.36,11.19-12.94,21.9-21.45,31.35-159.56,177.39-360,272.53-596.17,295.32-9.46.91-19.66,3.53-27.43-6.26,154.77-33.36,293.94-99.5,418.37-196.88,54.41-39.11,100.05-87.3,143.1-138.17Z"/>
  <path class="st0" d="M1298.9,321.77c27.26,41.55,54.53,83.1,81.79,124.64,31.41,46.31,62.82,92.62,94.23,138.94-2.11,1.65-4.23,3.29-6.34,4.94-117.87-143.75-235.74-287.5-354.66-432.54,48.15-8.32,80.33,4.18,103.77,47.22,22.54,41.4,53.79,78.06,81.21,116.8Z"/>
  <path class="st1" d="M2052.53,2229.36c-10.98,27.22-21.95,54.44-32.93,81.66-50.63-88.74-90.29-181.34-107.82-283.01-10.06-58.34-29.26-114.31-65.56-162.56-5.77-7.67-9.52-20.06-25.33-18.29,25.27,57.45,35.16,117.08,43.3,176.96,16.94,124.61,60.31,238.33,136.68,338.85-19.64,73.66-36.13,148.04-49.36,223.88-19.41-151.26-64.13-292.67-136.41-425.35,30.38-102.55,19.36-202.55-19.06-300.69-15.27-39-37.36-74.35-61.99-108.88,54.72-7.06,101.63,27.89,160.52,120.08,6.2-50.07,1.57-96.09-11.14-141.09-33.64-119.05-103.21-210.94-212.1-270.75-81.22-44.61-166.65-81.19-241.84-137.12-52.83-39.3-99.69-84.25-144.77-131.54-85.81-90.04-146.1-195.61-184.78-313.15-14.63-44.47-30.87-91.16-31.06-136.9-.2-49.57-12.88-98.07-4-149.24,8.42-48.5,15.69-97.48,25.3-146.92,44.8,120.23,106.62,229.58,194.02,323.51,25.17,31.28,51.13,61.78,84.45,84.96,2.74,10.73,12.54,15.22,19.82,21.67,55.27,48.9,115.5,90.94,177.8,130.46,179.2,113.68,301.67,270.2,355.88,477.33,12.64,48.29,18.15,97.88,25.62,147.29,15.93-42.56,22.9-86.39,25.08-130.75,9.58-195.42-22.99-383.6-99.96-563.65-36.83-86.18-61.17-176.14-84.1-266.63-4.41-39.52-8.82-79.04-13.24-118.57-8.71-127.04,7.43-250.32,56.1-368.6,20.71-50.33,46.57-97.86,81.15-141.44-3.63,20.62-7.89,41.15-10.8,61.88-20.79,147.75,9.82,289.4,51.84,429.57,33.6,112.09,78.23,220.53,107,334.36,62.13,245.86,41.7,485.66-47.11,721.4,10.03,3.24,11.3-4.81,14.1-9.68,97.43-169.51,226.71-310.85,378.85-432.69,80.85-64.75,149.18-141.11,198.81-232.95,22.51-35.17,40.6-72.41,52.67-112.47,23.97-55.88,32.53-114.84,35-175.01.41-9.92.86-19.85,1.29-29.77l-.45.43c25.22,49.85,36.38,104.06,43.36,158.43,44.71,348.58-84.09,616.16-379.52,804.63-93.08,59.38-184.5,121.4-255.7,206.98-112.11,134.76-128.5,283.89-58.69,443.56,2.91,6.66,6.05,13.21,9.08,19.82ZM1819.02,1459.82c1.48,2.8,2.95,5.6,4.43,8.4,3.57-3.92,2.11-7.99.37-12.08-72.14-130.94-175.54-232.69-295.53-319.68-160.66-116.48-281.51-266.68-370.41-443.42-2.39-4.76-1.11-15.9-14.13-12.8,6.57,21.7,12.54,43.1,19.51,64.16,60.68,183.29,175.24,327.27,328.32,441.09,114.58,85.2,230.88,167.84,327.45,274.32ZM2023.14,1727.17c68.86-82.76,145.15-157.96,229.9-224.36,52.25-40.94,107.02-78.84,157.67-121.64,121.26-102.48,214.41-224.54,253.91-381.78,9.79-38.96,10.02-44.97,3.79-68.42-31.39,107.16-93.66,193.34-168.41,271.67-56.68,59.39-119.57,111.8-183.39,163.21-123.13,99.17-229.13,212.76-298.26,357.08-1.66,2.44-3.33,4.88-4.99,7.32,4.34,2.42,7.6,1.42,9.77-3.07ZM2023.49,1250.11c2.87.07,5.75.14,8.62.22,2.16-20.36,5.07-40.66,6.36-61.07,9.27-147.08-19.35-287.28-78.15-421.7-38.23-87.39-73.01-175.93-93.26-269.45-5.75-26.57-10.29-53.48-13.82-80.44-3.39-25.87-4.76-52.01-7.01-78.03-5.39,10.49-8.17,20.92-9.56,31.52-17.67,135.01,6.73,264.13,57.02,388.99,45.76,113.64,92.41,226.86,115.17,348.03,8.79,46.81,14.47,94.04,14.64,141.94Z"/>
  <g class="st3">
    <path class="st2" d="M1295.41,2064.37l62.79-36.25v-72.51l-62.79-36.25-62.79,36.25v72.51l62.79,36.25Z"/>
    <path class="st2" d="M874.24,1624.1l26.29-15.18v-30.35l-26.29-15.18-26.29,15.18v30.35l26.29,15.18Z"/>
    <path class="st2" d="M1307.52,1727.27l30.46-17.58v-35.17l-30.46-17.58-30.46,17.58v35.17l30.46,17.58Z"/>
    <path class="st2" d="M1049.23,1838.22l66.72-38.52v-77.04l-66.72-38.52-66.72,38.52v77.04l66.72,38.52Z"/>
    <path class="st2" d="M746.19,1754.78l42.92-24.78v-49.56l-42.92-24.78-42.92,24.78v49.56l42.92,24.78Z"/>
    <path class="st2" d="M828.26,2021.55l56.25-32.48v-64.95l-56.25-32.48-56.25,32.48v64.95l56.25,32.48Z"/>
  </g>
  <g class="st3">
    <path class="st2" d="M2610.04,2022.77v-72.51s-62.79-36.25-62.79-36.25l-62.79,36.25v72.51s62.79,36.25,62.79,36.25l62.79-36.25Z"/>
    <path class="st2" d="M2994.7,1603.58v-30.35s-26.29-15.18-26.29-15.18l-26.29,15.18v30.35s26.29,15.18,26.29,15.18l26.29-15.18Z"/>
    <path class="st2" d="M2565.59,1704.34v-35.17s-30.46-17.58-30.46-17.58l-30.46,17.58v35.17s30.46,17.58,30.46,17.58l30.46-17.58Z"/>
    <path class="st2" d="M2860.14,1794.35v-77.04s-66.72-38.52-66.72-38.52l-66.72,38.52v77.04s66.72,38.52,66.72,38.52l66.72-38.52Z"/>
    <path class="st2" d="M3139.39,1724.65v-49.56s-42.92-24.78-42.92-24.78l-42.92,24.78v49.56s42.92,24.78,42.92,24.78l42.92-24.78Z"/>
    <path class="st2" d="M3070.65,1983.72v-64.95s-56.25-32.48-56.25-32.48l-56.25,32.48v64.95s56.25,32.48,56.25,32.48l56.25-32.48Z"/>
  </g>
</svg>