<?xml version="1.0" encoding="UTF-8"?>
<svg id="Layer_1" xmlns="http://www.w3.org/2000/svg" xmlns:xlink="http://www.w3.org/1999/xlink" version="1.1" viewBox="0 0 680.88 389.32">
  <!-- Generator: Adobe Illustrator 30.2.1, SVG Export Plug-In . SVG Version: 2.1.1 Build 1)  -->
  <defs>
    <style>
      .st0 {
        filter: url(#drop-shadow-1);
      }

      .st1 {
        filter: url(#drop-shadow-3);
      }

      .st2 {
        filter: url(#drop-shadow-2);
      }

      .st3 {
        filter: url(#drop-shadow-4);
      }

      .st4, .st5, .st6, .st7, .st8, .st9 {
        fill: #fff;
      }

      .st5 {
        filter: url(#drop-shadow-9);
      }

      .st6 {
        filter: url(#drop-shadow-8);
      }

      .st7 {
        filter: url(#drop-shadow-6);
      }

      .st8 {
        filter: url(#drop-shadow-7);
      }

      .st9 {
        filter: url(#drop-shadow-5);
      }
    </style>
    <filter id="drop-shadow-1" x="25.32" y="111.05" width="539.28" height="178.19" filterUnits="userSpaceOnUse">
      <feOffset dx="0" dy="9"/>
      <feGaussianBlur result="blur" stdDeviation="2.88"/>
      <feFlood flood-color="#000" flood-opacity=".15"/>
      <feComposite in2="blur" operator="in"/>
      <feComposite in="SourceGraphic"/>
    </filter>
    <filter id="drop-shadow-2" x="113.88" y="50.4" width="360.24" height="57.16" filterUnits="userSpaceOnUse">
      <feOffset dx="0" dy="9"/>
      <feGaussianBlur result="blur1" stdDeviation="2.88"/>
      <feFlood flood-color="#000" flood-opacity=".15"/>
      <feComposite in2="blur1" operator="in"/>
      <feComposite in="SourceGraphic"/>
    </filter>
    <filter id="drop-shadow-3" x="114.36" y="281.17" width="359.28" height="58.95" filterUnits="userSpaceOnUse">
      <feOffset dx="0" dy="9"/>
      <feGaussianBlur result="blur2" stdDeviation="2.88"/>
      <feFlood flood-color="#000" flood-opacity=".15"/>
      <feComposite in2="blur2" operator="in"/>
      <feComposite in="SourceGraphic"/>
    </filter>
    <filter id="drop-shadow-4" x="560.28" y="152.9" width="39.36" height="37.7" filterUnits="userSpaceOnUse">
      <feOffset dx="0" dy="9"/>
      <feGaussianBlur result="blur3" stdDeviation="2.88"/>
      <feFlood flood-color="#000" flood-opacity=".15"/>
      <feComposite in2="blur3" operator="in"/>
      <feComposite in="SourceGraphic"/>
    </filter>
    <filter id="drop-shadow-5" x="469.08" y="3.24" width="62.4" height="91.6" filterUnits="userSpaceOnUse">
      <feOffset dx="0" dy="9"/>
      <feGaussianBlur result="blur4" stdDeviation="2.88"/>
      <feFlood flood-color="#000" flood-opacity=".15"/>
      <feComposite in2="blur4" operator="in"/>
      <feComposite in="SourceGraphic"/>
    </filter>
    <filter id="drop-shadow-6" x="37.08" y="31.64" width="91.44" height="85.28" filterUnits="userSpaceOnUse">
      <feOffset dx="0" dy="9"/>
      <feGaussianBlur result="blur5" stdDeviation="2.88"/>
      <feFlood flood-color="#000" flood-opacity=".15"/>
      <feComposite in2="blur5" operator="in"/>
      <feComposite in="SourceGraphic"/>
    </filter>
    <filter id="drop-shadow-7" x="475.08" y="41.98" width="89.28" height="71.34" filterUnits="userSpaceOnUse">
      <feOffset dx="0" dy="9"/>
      <feGaussianBlur result="blur6" stdDeviation="2.88"/>
      <feFlood flood-color="#000" flood-opacity=".15"/>
      <feComposite in2="blur6" operator="in"/>
      <feComposite in="SourceGraphic"/>
    </filter>
    <filter id="drop-shadow-8" x="10.68" y="72.73" width="74.4" height="42.99" filterUnits="userSpaceOnUse">
      <feOffset dx="0" dy="9"/>
      <feGaussianBlur result="blur7" stdDeviation="2.88"/>
      <feFlood flood-color="#000" flood-opacity=".15"/>
      <feComposite in2="blur7" operator="in"/>
      <feComposite in="SourceGraphic"/>
    </filter>
    <filter id="drop-shadow-9" x="527.64" y="159.74" width="142.8" height="127.34" filterUnits="userSpaceOnUse">
      <feOffset dx="0" dy="9"/>
      <feGaussianBlur result="blur8" stdDeviation="2.88"/>
      <feFlood flood-color="#000" flood-opacity=".15"/>
      <feComposite in2="blur8" operator="in"/>
      <feComposite in="SourceGraphic"/>
    </filter>
  </defs>
  <g class="st0">
    <path class="st4" d="M161.94,201.62c-2.6-3.99-6-7.47-10.11-10.35-4.09-2.87-8.93-5.02-14.39-6.4-2.1-.53-4.26-.92-6.5-1.16.14-.08.27-.15.41-.23,3.67-2.07,7.02-4.7,9.98-7.84,2.99-3.18,5.35-6.96,7.03-11.24,1.69-4.34,2.32-9.32,1.86-14.8-.47-5.64-2.15-10.82-4.97-15.39-2.85-4.61-6.58-8.18-11.09-10.62l-.07-.04c-4.32-2.18-9.19-3.74-14.47-4.64-5.26-.89-12.41-.97-21.27-.23l-31.67,2.65c-4.68.39-8.93.71-12.99.97-4.18.27-8.69.46-13.4.56h-.17c-3.31.29-4.69,2.25-5.22,3.39-.71,1.52-1,3.14-.86,4.8l.02.15c.2,1.4.81,5.65,4.12,6.37,1.27.28,2.83.34,4.77.17,3.16-.26,5.58-.07,7.21.58,1.52.61,2.62,1.45,3.35,2.56.84,1.27,1.43,2.79,1.76,4.51.38,1.98.66,3.99.82,5.98l7.46,89.17c.17,1.99.23,4.02.18,6.03-.04,1.75-.37,3.34-.99,4.74-.54,1.22-1.48,2.23-2.88,3.08-1.49.91-3.85,1.51-7.01,1.77-1.93.16-3.46.48-4.67.96-3.15,1.27-3.05,5.56-3.01,6.97v.15c.15,1.67.7,3.22,1.65,4.59.66.96,2.16,2.49,5.01,2.49.22,0,.46,0,.7-.03l.17-.02c4.67-.69,9.19-1.25,13.42-1.68,4.15-.42,8.55-.83,13.07-1.21l26.98-2.03c6.86-.57,14.07-1.88,21.43-3.87,7.47-2.03,14.3-5.05,20.29-8.99,6.11-4.01,11.04-9.19,14.67-15.39,3.71-6.34,5.12-14.14,4.2-23.25-.56-4.72-2.18-9.17-4.82-13.22ZM82.39,133.76l13.05-1.09c8.97-.75,15.35.88,18.97,4.83,3.8,4.15,6.04,9.96,6.65,17.25.52,6.2-.08,11.02-1.79,14.33-1.71,3.32-3.95,5.84-6.66,7.49-2.84,1.73-6.02,2.89-9.46,3.46-3.68.6-7.03,1.03-9.97,1.28l-6.76.57-4.02-48.11ZM135.74,232.78c-1.43,4.06-3.55,7.42-6.3,10-2.79,2.62-6.25,4.68-10.27,6.11-4.16,1.48-8.64,2.44-13.32,2.83h0c-2.95.25-5.42.25-7.35,0-1.6-.21-2.87-.69-3.76-1.44-.9-.75-1.63-2.03-2.19-3.8-.65-2.06-1.13-4.89-1.43-8.41l-3.5-41.86,6.53-.55c7.64-.64,14.18-.43,19.43.64,5.17,1.04,9.45,2.65,12.73,4.79,3.23,2.1,5.73,4.57,7.43,7.36,1.71,2.8,2.86,5.83,3.41,8.99.5,6.1.02,11.27-1.42,15.35Z"/>
    <path class="st4" d="M322.9,244.49c-1.23-.21-2.5-.39-3.83-.53-2.51-.22-4.66-.77-6.4-1.64-1.84-.92-3.76-2.12-5.69-3.58-7.58-7.64-14.39-15.96-20.24-24.72-5.29-7.92-10.6-15.94-15.82-23.87,4.53-1.51,8.69-3.41,12.41-5.66,4.66-2.82,8.67-6.04,11.93-9.56,3.3-3.57,5.84-7.48,7.55-11.62,1.72-4.18,2.56-8.54,2.49-12.94-.08-4.86-1.22-9.69-3.4-14.34-2.19-4.69-5.59-8.87-10.08-12.43-4.42-3.5-10.1-6.37-16.87-8.53-6.73-2.15-14.91-3.24-24.35-3.24l-38.76.63c-4.57.07-8.98.11-13.14.1-4.26,0-8.81-.12-13.52-.34h-.08s-.09,0-.09,0c-3.32.06-4.83,1.92-5.44,3.02-.81,1.47-1.21,3.06-1.18,4.73v.16c.11,1.41.43,5.69,3.69,6.63,1.24.36,2.8.52,4.75.5,3.14-.05,5.52.33,7.08,1.14,1.51.79,2.58,1.74,3.25,2.93.75,1.33,1.24,2.88,1.45,4.61.25,2,.39,4.03.42,6.02l1.44,89.25c.03,2-.04,4.03-.23,6.03-.16,1.75-.6,3.31-1.3,4.66-.62,1.18-1.63,2.12-3.08,2.88-1.55.81-3.95,1.24-7.12,1.3-1.94.03-3.49.24-4.73.65-3.23,1.06-3.41,5.34-3.47,6.75v.08s0,.08,0,.08c.03,1.68.48,3.26,1.33,4.69.63,1.07,2.17,2.84,5.39,2.84.05,0,.09,0,.14,0h.17c4.71-.38,9.22-.64,13.39-.78,4.07-.14,8.45-.25,13.02-.32,8.93-.14,18.37-.07,28.06.22h.06s.06,0,.06,0c2.45-.04,4.39-1.11,5.44-3.02.81-1.47,1.21-3.06,1.18-4.73v-.16c-.11-1.41-.44-5.71-3.86-6.64-1.3-.35-2.84-.52-4.58-.48-3.18.04-5.58-.31-7.16-1.07-1.48-.71-2.51-1.61-3.17-2.78-.75-1.32-1.24-2.87-1.45-4.61-.25-2-.39-4.02-.42-6.02l-.55-34.05,3.85-.06c2.5-.04,4.6.1,6.22.41,1.53.29,2.8.71,3.76,1.23.88.48,1.67,1.17,2.36,2.05.86,1.12,1.81,2.38,2.89,3.87,3.48,5.56,7.13,11.28,10.84,17.02,3.73,5.77,7.8,11.57,12.09,17.18,4.3,5.86,8.75,10.43,13.22,13.58,4.56,3.23,10.27,5.46,16.97,6.62l.25.04,5.89-.1c1.49-.02,2.88,0,4.14.04,1.36.05,2.83.1,4.42.16,1.52.05,3.46.13,5.94.24h.08s.08,0,.08,0c2.45-.04,4.38-1.11,5.44-3.02.81-1.47,1.21-3.06,1.18-4.73v-.16c-.38-4.89-2.56-6.28-4.33-6.58ZM261.44,178.77c-4.01,2.04-9.7,3.14-16.92,3.25l-17.15.28-.65-40.43c-.06-3.56.11-6.49.49-8.72.34-1.96.93-3.5,1.76-4.59.74-.97,1.84-1.63,3.36-2.04,1.88-.5,4.31-.78,7.23-.82,7-.11,12.84.64,17.36,2.24,4.45,1.58,8.03,3.66,10.64,6.18,2.58,2.49,4.45,5.39,5.57,8.62,1.16,3.37,1.78,6.74,1.83,10.03.05,2.82-.23,6.02-.82,9.52-.55,3.27-1.82,6.37-3.79,9.2-1.94,2.8-4.94,5.24-8.91,7.27Z"/>
    <path class="st4" d="M395.57,112.48h-.06s-.06,0-.06,0c-9.66.2-19.1.18-28.06-.05-4.61-.12-9.03-.27-13.13-.45-4.26-.18-8.8-.49-13.5-.91h-.17c-3.32-.09-4.91,1.7-5.56,2.78-.87,1.43-1.33,3.01-1.38,4.68v.08s0,.08,0,.08c.05,1.42.18,5.75,3.56,6.8,1.29.41,2.78.63,4.56.67,3.17.08,5.56.54,7.1,1.37,1.45.77,2.45,1.73,3.05,2.91.69,1.36,1.12,2.93,1.26,4.67.16,2.02.29,4.08.39,6.14l-2.32,89.26c-.2,2.06-.44,4.11-.71,6.11-.23,1.74-.74,3.28-1.5,4.6-.67,1.15-1.71,2.05-3.2,2.75-1.58.74-3.99,1.08-7.17.99-1.74-.04-3.29.1-4.59.44-3.43.89-3.8,5.19-3.91,6.61v.15c-.05,1.68.33,3.27,1.12,4.74.6,1.11,2.09,2.99,5.41,3.07h.08s.09,0,.09,0c4.71-.17,9.3-.24,13.64-.2,4.18.03,8.63.11,13.25.23,8.77.23,18.12.7,27.8,1.4h.12c.07,0,.13,0,.2,0,2.16,0,4-.94,5.17-2.67,1-1.46,1.52-3.07,1.57-4.8v-.16s-.01-.16-.01-.16c-.22-2.39-.84-5.68-3.63-6.63-1.24-.41-2.78-.64-4.71-.69-3.18-.08-5.57-.54-7.11-1.37-1.45-.77-2.44-1.72-3.05-2.91-.69-1.35-1.12-2.92-1.26-4.67-.16-2-.22-4.03-.17-6.03l2.33-89.46c.05-2,.21-4.02.48-6.02.23-1.73.74-3.28,1.5-4.6.67-1.15,1.72-2.05,3.2-2.75,1.59-.74,3.99-1.08,7.17-1,1.94.05,3.5-.1,4.75-.45,2.83-.79,3.62-4.05,3.96-6.43l.03-.31c.04-1.72-.4-3.35-1.32-4.87-1.12-1.84-2.97-2.89-5.22-2.95Z"/>
    <path class="st4" d="M554.83,126.28c-.93-1.97-2.78-3.16-5.23-3.36h-.17c-2.4-.05-4.5-.11-6.26-.19l-5.3-.21c-1.63-.06-3.33-.16-5.06-.3l-5.95-.49c-4.65-.38-8.55-.74-11.95-1.09-3.51-.36-7.66-.89-12.31-1.57l-.17-.02c-2.31-.19-4.26.7-5.48,2.49-.95,1.38-1.5,2.93-1.64,4.6v.15c-.04,1.41-.14,5.71,3.01,6.96,1.2.48,2.73.8,4.68.96,2.43.2,4.59.48,6.41.85,1.83.36,2.73.88,3.16,1.24.13.11.3.25.17.95-.11.58-.59,1.93-2.62,4.41l-22.28,27.32-14.09-27.92-.09-.17c-2.71-4.52-5.43-8.49-8.09-11.81-2.76-3.42-5.89-6.32-9.32-8.61-3.43-2.29-7.35-4.08-11.65-5.31-4.22-1.21-9.08-2.04-14.46-2.48-2.66-.22-4.94-.28-6.78-.19-1.49.07-5.01.84-5.47,6.41-.12,1.5-.45,5.47,2.45,6.8.92.42,2.39.94,4.63,1.61,4.33,1.33,8.02,3.27,10.97,5.77,2.97,2.53,6.06,6.69,9.14,12.33l24.22,45.92-35.22,42.23c-2.28,2.75-4.32,5.03-6.06,6.77-1.62,1.62-3.24,2.87-4.81,3.73-1.55.84-3.24,1.42-5,1.73-1.82.32-4.07.37-6.68.16-1.93-.16-3.49-.1-4.77.18-3.32.73-3.92,4.98-4.11,6.38l-.02.16c-.14,1.67.16,3.28.87,4.8.53,1.14,1.92,3.1,5.23,3.37h.17c2.34.05,4.45.11,6.26.19l5.3.21c1.62.06,3.32.16,5.06.3l5.96.49c4.51.37,8.53.74,11.95,1.09,3.5.36,7.64.89,12.31,1.57l.17.02c2.31.19,4.25-.69,5.49-2.49.95-1.39,1.5-2.93,1.64-4.59v-.16c.04-1.41.14-5.69-3.02-6.96-1.21-.48-2.74-.79-4.67-.95-2.43-.2-4.63-.49-6.53-.86-1.92-.37-2.69-.91-2.99-1.21-.15-.15-.35-.35-.21-1.07.08-.43.5-1.72,2.59-4.29l29.67-35.8,23.49,40.21c1.91,3.09,1.06,4.4.75,4.88-1,1.55-4,1.64-6.34,1.45-1.77-.14-3.27-.08-4.6.18-3.48.7-4.08,4.97-4.28,6.38l-.02.15c-.14,1.67.16,3.29.87,4.8.53,1.14,1.92,3.1,5.23,3.37h.12c9.55.34,18.75.87,27.34,1.57,4.59.38,9.03.78,13.2,1.2,2.95.29,6.04.65,9.21,1.07-2.9-2.22-5.11-5.38-6.5-9.43l-.05-.14-.04-.14c-.48-1.66-.71-3.54-.71-5.73.04-1.99.25-3.73.57-5.25-2.33-3.06-4.49-6.31-6.42-9.71l-33.57-57.29,28.15-33.72c2.13-2.62,4.09-4.87,5.84-6.69,1.61-1.68,3.22-2.96,4.78-3.8,1.53-.83,3.25-1.41,5.09-1.71,1.92-.31,4.21-.37,6.82-.15,1.94.16,3.5.1,4.76-.18,3.31-.73,3.92-4.98,4.12-6.38l.02-.16c.14-1.66-.15-3.27-.87-4.8Z"/>
  </g>
  <g class="st2">
    <path class="st4" d="M144.22,69.11v-.11c.99-.21,1.89-.59,2.69-1.12.8-.53,1.49-1.18,2.07-1.94.58-.76,1.04-1.61,1.36-2.55.32-.94.48-1.91.48-2.9,0-1.77-.34-3.25-1.01-4.44-.67-1.19-1.57-2.14-2.69-2.87-1.12-.73-2.41-1.24-3.88-1.54-1.47-.3-3-.45-4.6-.45h-16.06v37.97h16.06c2.06,0,3.82-.19,5.29-.56,1.47-.37,2.71-.85,3.72-1.44,1.01-.59,1.82-1.27,2.42-2.05.6-.78,1.06-1.57,1.38-2.37.32-.8.53-1.58.64-2.34.11-.76.16-1.44.16-2.05,0-2.48-.73-4.56-2.18-6.25-1.45-1.68-3.4-2.69-5.85-3.01ZM126.2,54.28h12.44c5.71,0,8.56,2.38,8.56,7.13,0,.89-.18,1.72-.53,2.5-.35.78-.89,1.46-1.6,2.05-.71.59-1.59,1.05-2.66,1.38-1.06.34-2.32.51-3.78.51h-12.44v-13.56ZM147.84,82.06c-.53,1.01-1.26,1.82-2.18,2.42-.92.6-1.99,1.02-3.19,1.25-1.21.23-2.48.35-3.83.35h-12.44v-15.16h12.44c3.23,0,5.7.61,7.42,1.83,1.72,1.22,2.58,3.06,2.58,5.5,0,1.52-.27,2.79-.8,3.8Z"/>
    <rect class="st4" x="159.38" y="51.19" width="3.62" height="37.97"/>
    <path class="st4" d="M201.28,56.38c-1.49-1.83-3.35-3.28-5.58-4.36-2.23-1.08-4.84-1.62-7.82-1.62s-5.59.54-7.84,1.62c-2.25,1.08-4.12,2.54-5.61,4.36-1.49,1.83-2.61,3.93-3.35,6.3-.74,2.37-1.12,4.87-1.12,7.5s.37,5.12,1.12,7.5c.74,2.37,1.86,4.47,3.35,6.27,1.49,1.81,3.36,3.25,5.61,4.33,2.25,1.08,4.87,1.62,7.84,1.62s5.58-.54,7.82-1.62c2.23-1.08,4.09-2.53,5.58-4.33,1.49-1.81,2.61-3.9,3.35-6.27.74-2.37,1.12-4.87,1.12-7.5s-.37-5.12-1.12-7.5c-.75-2.37-1.86-4.48-3.35-6.3ZM201.31,76.26c-.55,2-1.4,3.79-2.55,5.37-1.15,1.58-2.62,2.84-4.41,3.8-1.79.96-3.94,1.44-6.46,1.44s-4.68-.48-6.49-1.44c-1.81-.96-3.29-2.22-4.44-3.8-1.15-1.58-2-3.37-2.55-5.37-.55-2-.82-4.03-.82-6.09s.27-4.13.82-6.11c.55-1.98,1.4-3.77,2.55-5.34,1.15-1.58,2.63-2.84,4.44-3.8,1.81-.96,3.97-1.44,6.49-1.44s4.67.48,6.46,1.44c1.79.96,3.26,2.23,4.41,3.8,1.15,1.58,2,3.36,2.55,5.34.55,1.99.82,4.02.82,6.11s-.27,4.09-.82,6.09Z"/>
    <polygon class="st4" points="238.61 83.31 238.5 83.31 216.38 51.19 212.34 51.19 212.34 89.16 215.96 89.16 215.96 57.04 216.06 57.04 238.18 89.16 242.22 89.16 242.22 51.19 238.61 51.19 238.61 83.31"/>
    <path class="st4" d="M276.36,74.7c0,2.2-.25,4.07-.74,5.61s-1.22,2.8-2.18,3.77c-.96.98-2.13,1.68-3.51,2.13-1.38.44-2.96.66-4.73.66s-3.3-.22-4.68-.66c-1.38-.44-2.55-1.15-3.51-2.13-.96-.97-1.68-2.23-2.18-3.77-.5-1.54-.74-3.41-.74-5.61v-23.5h-3.62v24.3c0,1.95.27,3.8.82,5.56.55,1.75,1.42,3.29,2.61,4.6,1.19,1.31,2.71,2.35,4.57,3.11,1.86.76,4.1,1.14,6.73,1.14s4.92-.38,6.78-1.14c1.86-.76,3.38-1.8,4.57-3.11,1.19-1.31,2.06-2.84,2.61-4.6.55-1.75.82-3.61.82-5.56v-24.3h-3.62v23.5Z"/>
    <polygon class="st4" points="284.23 54.28 297.42 54.28 297.42 89.16 301.03 89.16 301.03 54.28 314.27 54.28 314.27 51.19 284.23 51.19 284.23 54.28"/>
    <path class="st4" d="M347.4,84.56c-.11-.94-.18-1.87-.21-2.79-.04-.92-.07-1.7-.11-2.34-.07-1.13-.22-2.19-.45-3.16-.23-.97-.6-1.83-1.12-2.58-.51-.75-1.18-1.36-1.99-1.83-.82-.48-1.84-.81-3.08-.98v-.11c2.45-.5,4.29-1.63,5.53-3.4,1.24-1.77,1.86-3.86,1.86-6.27,0-1.7-.31-3.18-.93-4.44-.62-1.26-1.45-2.29-2.5-3.08-1.05-.8-2.27-1.39-3.67-1.78-1.4-.39-2.88-.58-4.44-.58h-17.39v37.97h3.62v-16.86h13.72c1.7-.07,3.04.21,4.01.85.97.64,1.72,1.48,2.23,2.53.51,1.04.85,2.23,1.01,3.56.16,1.33.27,2.67.35,4.01.03.39.07.85.11,1.38.03.53.08,1.07.13,1.62.05.55.14,1.08.27,1.6.12.51.29.95.51,1.3h3.99c-.39-.46-.7-1.11-.93-1.94-.23-.83-.4-1.72-.51-2.66ZM339.16,68.71c-.99.34-2.04.51-3.14.51h-13.51v-14.94h13.51c2.76,0,4.82.68,6.17,2.02,1.35,1.35,2.02,3.19,2.02,5.53,0,1.17-.22,2.21-.66,3.11-.44.9-1.04,1.67-1.78,2.31-.74.64-1.61,1.13-2.61,1.46Z"/>
    <rect class="st4" x="355.7" y="51.19" width="3.62" height="37.97"/>
    <polygon class="st4" points="371.91 71.08 393.08 71.08 393.08 68 371.91 68 371.91 54.28 394.51 54.28 394.51 51.19 368.3 51.19 368.3 89.16 394.78 89.16 394.78 86.08 371.91 86.08 371.91 71.08"/>
    <polygon class="st4" points="427.11 83.31 427 83.31 404.88 51.19 400.84 51.19 400.84 89.16 404.46 89.16 404.46 57.04 404.56 57.04 426.68 89.16 430.72 89.16 430.72 51.19 427.11 51.19 427.11 83.31"/>
    <polygon class="st4" points="435.35 51.19 435.35 54.28 448.54 54.28 448.54 89.16 452.15 89.16 452.15 54.28 465.39 54.28 465.39 51.19 435.35 51.19"/>
  </g>
  <g class="st1">
    <path class="st4" d="M156.46,310.89c-1.84,6.57-6.72,11.51-15.49,11.51-11.75,0-17.82-9.15-17.82-20.48s6.01-20.75,17.95-20.75c9.03,0,14.15,5.08,15.41,11.8h-4.1c-1.66-4.84-4.82-8.22-11.5-8.22-9.48,0-13.41,8.64-13.41,17.06s3.82,17.01,13.64,17.01c6.39,0,9.44-3.46,11.22-7.93h4.11Z"/>
    <path class="st4" d="M166.44,281.75h4.1v17.17h22.67v-17.17h4.1v40.17h-4.1v-19.36h-22.67v19.36h-4.1v-40.17Z"/>
    <path class="st4" d="M214.86,308.86l-4.75,13.06h-4.12l14.55-40.17h4.98l15.17,40.17h-4.42l-4.88-13.06h-16.52ZM230.2,305.22c-4.18-11.32-6.39-17-7.23-19.86h-.06c-.98,3.21-3.46,10.18-6.83,19.86h14.12Z"/>
    <path class="st4" d="M249.08,281.75h4.1v36.54h21.3l-.65,3.63h-24.75v-40.17Z"/>
    <path class="st4" d="M282.16,281.75h4.1v36.54h21.3l-.65,3.63h-24.75v-40.17Z"/>
    <path class="st4" d="M339.57,302.61h-20.26v15.67h22.22l-.56,3.63h-25.71v-40.17h25.32v3.63h-21.26v13.6h20.26v3.63Z"/>
    <path class="st4" d="M350.81,321.92v-40.17h5.7c6.03,9.53,19.75,30.86,22.15,35.22h.07c-.36-5.51-.31-11.61-.31-18.16v-17.06h4v40.17h-5.32c-5.67-9.04-19.76-31.55-22.47-36.01h-.07c.29,4.96.26,11.25.26,18.52v17.49h-4.01Z"/>
    <path class="st4" d="M426.76,321.92h-3.26c-.25-.6-.38-2.54-.45-5.98-1.58,2.8-4.87,6.48-12.75,6.48-11.56,0-17.58-8.79-17.58-20.21,0-12.01,6.44-21.04,18.37-21.04,8.97,0,14.77,4.77,15.98,12.07h-4.1c-1.56-5.14-5.19-8.49-11.99-8.49-9.72,0-13.91,7.64-13.91,17.25,0,8.77,4.11,16.82,13.59,16.82s12.12-6.29,12.12-14.23v-.44h-12.22v-3.63h16.2v21.41Z"/>
    <path class="st4" d="M462.88,302.61h-20.26v15.67h22.22l-.56,3.63h-25.71v-40.17h25.32v3.63h-21.26v13.6h20.26v3.63Z"/>
  </g>
  <g class="st3">
    <path class="st4" d="M572.8,170.57c1.05.83,2.21,1.41,3.49,1.74,1.27.33,2.51.5,3.73.5,3.54,0,6.25-1.02,8.13-3.07,1.88-2.05,2.82-4.23,2.82-6.56,0-1.88-.31-3.46-.91-4.73-.61-1.27-1.38-2.32-2.32-3.15-.94-.83-1.97-1.44-3.07-1.82-1.11-.39-2.16-.58-3.15-.58-2.1,0-3.93.33-5.48,1-1.55.66-2.85,1.49-3.9,2.49-1.05,1-1.83,2.07-2.32,3.24-.5,1.16-.75,2.19-.75,3.07,0,1.88.36,3.46,1.08,4.73.72,1.27,1.6,2.32,2.65,3.15Z"/>
  </g>
  <path class="st9" d="M505.31,23.42c2.61-5.7,4.69-11.62,7.86-17.08,1.34-2.31,2.76-3.35,5.35-3.04,1.3.16,2.62.08,4.26.11-2.55,4.18-5.1,8.03-7.3,12.06-5.12,9.39-8.8,19.37-11.86,29.6-3.04,10.17-7.58,19.53-15.95,26.53-2.9,2.43-6.02,4.53-9.84,5.55,13.58-9.83,19.69-23.96,23.2-39.6,1.43-4.71,2.86-9.42,4.29-14.13Z"/>
  <path class="st7" d="M68.71,62.7c9.35,11.81,21.01,20.81,34.06,28.14,5.32,2.99,10.93,5.33,16.94,7.75-1.87,1.01-3.25.18-4.56-.18-29.27-7.94-51.76-24.63-66.32-51.51-.39-.72-.76-1.46-1.09-2.21-2.79-6.21-2.74-6.62,1.53-13.05,3.04,5.92,5.35,12.05,9.29,17.26,2.93,4.93,6.21,9.6,10.14,13.8Z"/>
  <path class="st8" d="M544.77,58.35c4.08-5.06,7.77-10.35,10.73-16.37-.52,5.99-.92,11.99-1.64,17.96-.15,1.22-1.41,2.38-2.33,3.41-17.35,19.28-39.14,29.63-64.81,32.11-1.03.1-2.14.38-2.98-.68,16.83-3.63,31.96-10.82,45.48-21.4,5.92-4.25,10.88-9.49,15.56-15.02Z"/>
  <path class="st6" d="M45.61,81.37c4.79,2.5,9.58,5,14.37,7.5,5.43,2.73,10.87,5.47,16.3,8.2-.11.27-.23.54-.34.8-18.8-7.41-37.61-14.82-56.58-22.29,4.13-3.34,7.85-3.86,12.35-1.01,4.33,2.74,9.24,4.56,13.9,6.79Z"/>
  <path class="st5" d="M621.97,215.33c.16-.79,1.43-3.1,3.82-6.92,1.11-1.91,2.06-3.58,2.86-5.01,14.47-1.59,23.58-2.9,27.32-3.94,3.73-1.03,5.61-2.03,5.61-2.98,0-.79-1.31-1.19-3.94-1.19s-10.06.56-22.31,1.67l-3.1.24,11.45-20.04c.48-.95,1.35-1.83,2.62-2.62,1.27-.79,2.46-2.11,3.58-3.94,1.11-1.83,1.67-3.5,1.67-5.01s-.24-2.58-.72-3.22c-1.11-1.75-3.22-2.62-6.32-2.62s-4.97.48-5.61,1.43c-.32.32-.64.64-.95.95-.32.32-.72.88-1.19,1.67-.48.8-.92,1.55-1.31,2.27-.4.72-1,1.75-1.79,3.1-.8,1.35-1.51,2.67-2.15,3.94l-11.93,22.19c-.48,0-.8.16-.95.48-7.32.32-11.53,1.75-12.64,4.29-.64,1.43-.56,2.67.24,3.7.79,1.04,2.03,1.55,3.7,1.55s3.3-.16,4.89-.48c-3.5,6.52-5.25,9.86-5.25,10.02-4.31,6.46-10.18,14.34-17.61,23.63-2.91,3.14-6.14,6.32-9.7,9.53-7.4,6.68-13.16,11.13-17.3,13.36-4.14,2.23-7.32,2.07-9.54-.48-1.27-1.43-1.91-3.26-1.91-5.49s.08-4.06.24-5.49c.48-4.93,5.25-16.46,14.31-34.59.79-1.43,1.59-2.94,2.39-4.53.16-.48.4-1.11.72-1.91.32-.79.83-1.87,1.55-3.22.72-1.35.91-2.74.6-4.17-.8-2.54-3.18-3.82-7.16-3.82h-1.67c-2.39.48-5.17,5.17-8.35,14.08-.64,1.27-.8,2.31-.48,3.1-4.45,6.68-10.58,14.87-18.37,24.57-.64.8-.95,1.47-.95,2.03s.08,1,.24,1.31c.79,1.59,1.91,1.59,3.34,0,5.4-6.2,8.51-10.18,9.3-11.93-5.09,11.29-7.63,19.72-7.63,25.29,0,1.59.16,2.94.48,4.06,2.07,6.04,6.28,9.07,12.64,9.07,2.7,0,6.04-.72,10.02-2.15,6.84-2.55,15.35-9.3,25.53-20.28,2.89-3.11,5.36-5.96,7.42-8.56,3.05-3.66,4.87-6.14,5.46-7.42-5.09,11.29-7.63,19.72-7.63,25.29,0,1.59.16,2.94.48,4.06,2.07,6.04,6.28,9.07,12.64,9.07,2.7,0,6.04-.72,10.02-2.15,6.84-2.55,15.35-9.3,25.53-20.28,10.65-11.45,14.79-17.73,12.41-18.85-.95-.48-1.75-.32-2.39.48-4.61,6.36-10.62,12.88-18.01,19.56-7.4,6.68-13.16,11.13-17.3,13.36-4.14,2.23-7.32,2.07-9.54-.48-1.27-1.43-1.91-3.26-1.91-5.49s.08-4.06.24-5.49c.48-4.93,5.25-16.46,14.31-34.59Z"/>
</svg>