<?xml version="1.0" encoding="UTF-8"?>
<svg xmlns="http://www.w3.org/2000/svg" version="1.1" viewBox="-7.86 5.1 519.7 232.20000000000002"><g>
    <path fill="#000" d="M131.67,147.52c-1.76-2.7-4.06-5.06-6.84-7.01-2.77-1.94-6.05-3.4-9.74-4.33-1.42-.36-2.89-.62-4.4-.79.09-.05.18-.1.28-.16,2.48-1.4,4.75-3.18,6.75-5.31,2.02-2.15,3.62-4.71,4.76-7.61,1.15-2.94,1.57-6.31,1.26-10.02-.32-3.82-1.45-7.32-3.37-10.42-1.93-3.12-4.45-5.54-7.5-7.19l-.05-.02c-2.93-1.48-6.22-2.53-9.8-3.14-3.56-.6-8.4-.66-14.4-.16l-21.43,1.79c-3.17.26-6.04.48-8.79.66-2.83.19-5.88.31-9.07.38h-.11c-2.24.19-3.18,1.52-3.53,2.29-.48,1.03-.68,2.12-.58,3.25v.1c.15.95.56,3.83,2.8,4.31.86.19,1.91.23,3.23.12,2.14-.18,3.78-.05,4.88.39,1.03.41,1.77.98,2.27,1.73.57.86.97,1.89,1.19,3.05.26,1.34.45,2.7.56,4.05l5.05,60.35c.11,1.35.15,2.72.12,4.08-.03,1.19-.25,2.26-.67,3.2-.36.82-1,1.51-1.95,2.08-1.01.62-2.61,1.02-4.75,1.2-1.31.11-2.34.32-3.16.65-2.14.86-2.06,3.76-2.04,4.72v.1c.1,1.13.47,2.18,1.12,3.11.45.65,1.46,1.69,3.39,1.69.15,0,.31,0,.47-.02h.11c3.16-.48,6.22-.86,9.08-1.15,2.81-.29,5.79-.56,8.85-.82l18.26-1.37c4.64-.39,9.52-1.27,14.5-2.62,5.05-1.37,9.68-3.42,13.73-6.09,4.13-2.71,7.47-6.22,9.93-10.42,2.51-4.29,3.46-9.57,2.84-15.74-.38-3.2-1.48-6.21-3.26-8.95ZM77.84,101.6l8.83-.74c6.07-.51,10.39.59,12.84,3.27,2.57,2.81,4.09,6.74,4.5,11.67.35,4.19-.06,7.46-1.21,9.7-1.15,2.25-2.67,3.95-4.51,5.07-1.92,1.17-4.08,1.96-6.4,2.34-2.49.41-4.76.7-6.75.86l-4.57.38-2.72-32.56ZM113.94,168.61c-.97,2.75-2.4,5.02-4.26,6.77-1.89,1.77-4.23,3.16-6.95,4.14-2.81,1-5.85,1.65-9.02,1.91h0c-2,.17-3.67.17-4.98,0-1.09-.14-1.94-.47-2.55-.98-.61-.51-1.11-1.37-1.48-2.57-.44-1.39-.77-3.31-.97-5.69l-2.37-28.33,4.42-.37c5.17-.43,9.6-.29,13.15.43,3.5.71,6.4,1.8,8.62,3.24,2.18,1.42,3.88,3.09,5.03,4.98,1.16,1.9,1.93,3.94,2.31,6.08.34,4.13.01,7.63-.96,10.39Z"></path>
    <path fill="#000" d="M240.61,176.54c-.83-.14-1.69-.26-2.59-.36-1.7-.15-3.15-.52-4.33-1.11-1.25-.62-2.54-1.43-3.85-2.42-5.13-5.17-9.74-10.8-13.7-16.73-3.58-5.36-7.17-10.79-10.71-16.15,3.06-1.02,5.88-2.31,8.4-3.83,3.15-1.91,5.87-4.08,8.07-6.47,2.23-2.41,3.95-5.06,5.11-7.87,1.17-2.83,1.73-5.78,1.69-8.76-.05-3.29-.83-6.56-2.3-9.71-1.49-3.17-3.78-6-6.82-8.41-2.99-2.37-6.84-4.31-11.42-5.78-4.56-1.45-10.09-2.19-16.48-2.19l-26.24.42c-3.09.05-6.08.07-8.89.07-2.88,0-5.96-.08-9.15-.23h-.06s-.06,0-.06,0c-2.25.04-3.27,1.3-3.68,2.04-.55.99-.82,2.07-.8,3.2v.11c.08.95.29,3.85,2.5,4.49.84.25,1.89.35,3.21.34,2.12-.03,3.74.23,4.79.77,1.02.53,1.74,1.18,2.2,1.98.51.9.84,1.95.98,3.12.17,1.36.26,2.73.28,4.07l.98,60.4c.02,1.35-.03,2.73-.15,4.08-.11,1.18-.4,2.24-.88,3.15-.42.8-1.1,1.43-2.09,1.95-1.05.55-2.67.84-4.82.88-1.31.02-2.36.16-3.2.44-2.19.71-2.31,3.61-2.35,4.57v.05s0,.05,0,.05c.02,1.13.32,2.2.9,3.17.43.72,1.47,1.92,3.65,1.92.03,0,.06,0,.09,0h.12c3.19-.26,6.24-.44,9.06-.53,2.76-.1,5.72-.17,8.81-.22,6.04-.1,12.43-.05,18.99.15h.04s.04,0,.04,0c1.66-.03,2.97-.75,3.68-2.04.55-1,.82-2.07.8-3.2v-.11c-.08-.96-.3-3.87-2.61-4.5-.88-.24-1.92-.35-3.1-.32-2.15.03-3.78-.21-4.85-.72-1-.48-1.7-1.09-2.15-1.88-.51-.89-.84-1.94-.98-3.12-.17-1.35-.26-2.72-.28-4.07l-.37-23.05,2.61-.04c1.69-.02,3.11.07,4.21.28,1.04.2,1.89.48,2.54.83.59.32,1.13.79,1.6,1.39.59.76,1.23,1.61,1.96,2.62,2.36,3.76,4.83,7.64,7.34,11.52,2.52,3.91,5.28,7.83,8.18,11.63,2.91,3.96,5.92,7.06,8.95,9.19,3.09,2.19,6.95,3.69,11.49,4.48l.17.03,3.98-.07c1.01-.02,1.95,0,2.8.03.92.04,1.91.07,2.99.11,1.03.03,2.34.08,4.02.16h.06s.06,0,.06,0c1.66-.03,2.97-.75,3.68-2.04.55-1,.82-2.07.8-3.2v-.11c-.26-3.31-1.73-4.25-2.93-4.45ZM199.01,132.06c-2.71,1.38-6.57,2.12-11.45,2.2l-11.61.19-.44-27.36c-.04-2.41.07-4.39.33-5.9.23-1.33.63-2.37,1.19-3.11.5-.65,1.24-1.1,2.27-1.38,1.27-.34,2.92-.52,4.89-.56,4.74-.08,8.69.43,11.75,1.52,3.01,1.07,5.44,2.48,7.2,4.18,1.74,1.69,3.01,3.65,3.77,5.83.79,2.28,1.2,4.56,1.24,6.79.03,1.91-.16,4.07-.55,6.45-.37,2.21-1.23,4.31-2.56,6.23-1.31,1.89-3.34,3.55-6.03,4.92Z"></path>
    <path fill="#000" d="M289.79,87.19h-.04s-.04,0-.04,0c-6.54.13-12.93.12-18.99-.04-3.12-.08-6.11-.19-8.89-.31-2.88-.12-5.96-.33-9.13-.62h-.11c-2.25-.06-3.32,1.15-3.76,1.88-.59.97-.9,2.04-.93,3.17v.05s0,.05,0,.05c.03.96.12,3.89,2.41,4.6.87.28,1.88.43,3.09.46,2.14.06,3.76.37,4.81.92.98.52,1.66,1.17,2.07,1.97.47.92.76,1.98.85,3.16.11,1.36.2,2.76.26,4.15l-1.57,60.41c-.14,1.39-.3,2.78-.48,4.13-.16,1.17-.5,2.22-1.01,3.11-.45.78-1.16,1.39-2.17,1.86-1.07.5-2.7.73-4.85.67-1.18-.03-2.22.07-3.1.3-2.32.6-2.57,3.52-2.65,4.47v.1c-.04,1.13.22,2.21.76,3.21.4.75,1.42,2.02,3.66,2.08h.06s.06,0,.06,0c3.19-.12,6.29-.16,9.23-.14,2.83.02,5.84.08,8.97.16,5.93.15,12.26.47,18.81.94h.08s.09,0,.13,0c1.46,0,2.7-.64,3.5-1.81.67-.99,1.03-2.08,1.06-3.25v-.11s0-.11,0-.11c-.15-1.62-.57-3.85-2.45-4.49-.84-.28-1.88-.43-3.19-.47-2.15-.06-3.77-.37-4.81-.93-.98-.52-1.65-1.16-2.07-1.97-.47-.91-.75-1.98-.85-3.16-.11-1.36-.15-2.73-.11-4.08l1.57-60.54c.04-1.35.14-2.72.32-4.07.16-1.17.5-2.22,1.01-3.11.45-.78,1.16-1.39,2.16-1.86,1.07-.5,2.7-.73,4.85-.67,1.32.03,2.37-.06,3.21-.3,1.92-.53,2.45-2.74,2.68-4.35l.02-.21c.03-1.16-.27-2.27-.89-3.3-.76-1.25-2.01-1.95-3.54-1.99Z"></path>
    <path fill="#000" d="M397.58,96.53c-.63-1.33-1.88-2.14-3.54-2.28h-.11c-1.62-.04-3.05-.08-4.24-.13l-3.59-.14c-1.1-.04-2.25-.11-3.42-.21l-4.03-.33c-3.14-.26-5.79-.5-8.09-.74-2.38-.25-5.18-.6-8.33-1.06h-.11c-1.56-.14-2.88.46-3.71,1.67-.64.94-1.02,1.98-1.11,3.11v.1c-.03.96-.1,3.86,2.04,4.71.81.33,1.85.54,3.17.65,1.64.13,3.1.33,4.34.57,1.24.25,1.85.6,2.14.84.09.08.2.17.11.64-.07.39-.4,1.31-1.77,2.98l-15.08,18.49-9.54-18.9-.06-.11c-1.83-3.06-3.67-5.75-5.48-7.99-1.87-2.32-3.99-4.28-6.31-5.83-2.32-1.55-4.98-2.76-7.89-3.59-2.85-.82-6.15-1.38-9.79-1.68-1.8-.15-3.34-.19-4.59-.13-1.01.05-3.39.57-3.7,4.34-.08,1.01-.3,3.71,1.66,4.6.62.29,1.62.64,3.13,1.09,2.93.9,5.43,2.21,7.43,3.91,2.01,1.71,4.1,4.53,6.19,8.35l16.39,31.08-23.84,28.58c-1.55,1.86-2.93,3.4-4.1,4.58-1.09,1.1-2.19,1.94-3.26,2.52-1.05.57-2.19.96-3.39,1.17-1.23.22-2.76.25-4.52.11-1.3-.11-2.36-.07-3.23.12-2.25.5-2.65,3.37-2.78,4.32v.11c-.1,1.13.09,2.22.57,3.25.36.77,1.3,2.1,3.54,2.28h.12c1.58.04,3.01.08,4.24.13l3.59.14c1.1.04,2.25.11,3.42.21l4.03.33c3.05.25,5.77.5,8.09.74,2.37.24,5.17.6,8.33,1.06h.11c1.56.14,2.88-.46,3.71-1.67.64-.94,1.01-1.98,1.11-3.11v-.11c.03-.95.09-3.85-2.04-4.71-.82-.33-1.85-.54-3.16-.64-1.65-.13-3.13-.33-4.42-.58-1.3-.25-1.82-.62-2.02-.82-.1-.1-.24-.23-.14-.73.05-.29.34-1.16,1.76-2.9l20.08-24.23,15.89,27.21c1.29,2.09.72,2.98.51,3.31-.68,1.05-2.71,1.11-4.29.98-1.2-.1-2.21-.06-3.11.12-2.36.47-2.76,3.37-2.9,4.32v.1c-.1,1.13.09,2.22.57,3.25.36.77,1.3,2.1,3.54,2.28h.08c6.47.23,12.69.59,18.5,1.06,3.11.25,6.11.53,8.93.81,2,.2,4.09.44,6.23.73-1.96-1.5-3.46-3.64-4.4-6.38l-.03-.09-.03-.1c-.32-1.13-.48-2.4-.48-3.88.03-1.35.17-2.52.38-3.55-1.58-2.07-3.04-4.27-4.34-6.57l-22.72-38.77,19.05-22.82c1.44-1.78,2.77-3.3,3.95-4.53,1.09-1.13,2.18-2,3.24-2.57,1.04-.56,2.2-.95,3.44-1.16,1.3-.21,2.85-.25,4.62-.1,1.31.11,2.37.07,3.22-.12,2.24-.49,2.65-3.37,2.79-4.32v-.11c.1-1.12-.09-2.21-.58-3.25Z"></path>
  </g><g>
    <path fill="#000" d="M119.68,57.84v-.07c.67-.14,1.28-.4,1.82-.76.54-.36,1.01-.8,1.4-1.31.4-.52.7-1.09.92-1.73.22-.64.32-1.29.32-1.96,0-1.2-.23-2.2-.68-3.01-.46-.8-1.06-1.45-1.82-1.94-.76-.49-1.63-.84-2.63-1.04-1-.2-2.03-.31-3.11-.31h-10.87v25.69h10.87c1.39,0,2.59-.13,3.58-.38,1-.25,1.84-.58,2.52-.97.68-.4,1.23-.86,1.64-1.39.41-.53.72-1.06.94-1.6.22-.54.36-1.07.43-1.58.07-.52.11-.98.11-1.39,0-1.68-.49-3.09-1.48-4.23-.98-1.14-2.3-1.82-3.96-2.03ZM107.48,47.8h8.42c3.86,0,5.79,1.61,5.79,4.82,0,.6-.12,1.16-.36,1.69-.24.53-.6.99-1.08,1.39-.48.4-1.08.71-1.8.94-.72.23-1.57.34-2.56.34h-8.42v-9.18ZM122.13,66.61c-.36.68-.85,1.23-1.48,1.64-.62.41-1.34.69-2.16.85-.82.16-1.68.23-2.59.23h-8.42v-10.26h8.42c2.18,0,3.86.41,5.02,1.24,1.16.83,1.75,2.07,1.75,3.73,0,1.03-.18,1.89-.54,2.57Z"></path>
    <rect fill="#000" x="129.94" y="45.71" width="2.45" height="25.69"></rect>
    <path fill="#000" d="M158.3,49.22c-1.01-1.24-2.27-2.22-3.78-2.95-1.51-.73-3.28-1.1-5.29-1.1s-3.78.37-5.31,1.1c-1.52.73-2.79,1.72-3.8,2.95-1.01,1.24-1.76,2.66-2.27,4.27s-.76,3.3-.76,5.07.25,3.47.76,5.07c.5,1.61,1.26,3.02,2.27,4.25,1.01,1.22,2.27,2.2,3.8,2.93,1.52.73,3.29,1.1,5.31,1.1s3.78-.37,5.29-1.1c1.51-.73,2.77-1.71,3.78-2.93,1.01-1.22,1.76-2.64,2.27-4.25.5-1.61.76-3.3.76-5.07s-.25-3.47-.76-5.07c-.5-1.61-1.26-3.03-2.27-4.27ZM158.31,62.68c-.37,1.36-.95,2.57-1.73,3.63-.78,1.07-1.78,1.93-2.99,2.57-1.21.65-2.67.97-4.37.97s-3.17-.32-4.39-.97c-1.22-.65-2.23-1.51-3-2.57-.78-1.07-1.36-2.28-1.73-3.63-.37-1.35-.56-2.73-.56-4.12s.19-2.79.56-4.14c.37-1.34.95-2.55,1.73-3.62.78-1.07,1.78-1.93,3-2.57,1.22-.65,2.69-.97,4.39-.97s3.16.32,4.37.97c1.21.65,2.21,1.51,2.99,2.57.78,1.07,1.36,2.27,1.73,3.62.37,1.34.56,2.72.56,4.14s-.19,2.77-.56,4.12Z"></path>
    <polygon fill="#000" points="183.56 67.45 183.49 67.45 168.52 45.71 165.78 45.71 165.78 71.41 168.23 71.41 168.23 49.67 168.3 49.67 183.27 71.41 186.01 71.41 186.01 45.71 183.56 45.71 183.56 67.45"></polygon>
    <path fill="#000" d="M209.11,61.62c0,1.49-.17,2.75-.5,3.8s-.83,1.9-1.48,2.55c-.65.66-1.44,1.14-2.37,1.44-.94.3-2,.45-3.2.45s-2.23-.15-3.17-.45c-.94-.3-1.73-.78-2.37-1.44-.65-.66-1.14-1.51-1.48-2.55-.34-1.04-.5-2.31-.5-3.8v-15.91h-2.45v16.45c0,1.32.19,2.57.56,3.76.37,1.19.96,2.23,1.76,3.11.8.89,1.84,1.59,3.09,2.11,1.26.52,2.78.77,4.55.77s3.33-.26,4.59-.77c1.26-.52,2.29-1.22,3.09-2.11.8-.89,1.39-1.93,1.76-3.11.37-1.19.56-2.44.56-3.76v-16.45h-2.45v15.91Z"></path>
    <polygon fill="#000" points="214.44 47.8 223.36 47.8 223.36 71.41 225.81 71.41 225.81 47.8 234.77 47.8 234.77 45.71 214.44 45.71 214.44 47.8"></polygon>
    <path fill="#000" d="M257.19,68.3c-.07-.64-.12-1.27-.14-1.89-.02-.62-.05-1.15-.07-1.58-.05-.77-.15-1.48-.31-2.14-.16-.66-.41-1.24-.76-1.74-.35-.5-.8-.92-1.35-1.24-.55-.32-1.25-.55-2.09-.67v-.07c1.65-.34,2.9-1.1,3.74-2.3.84-1.2,1.26-2.61,1.26-4.25,0-1.15-.21-2.15-.63-3.01-.42-.85-.98-1.55-1.69-2.09-.71-.54-1.54-.94-2.48-1.21-.95-.26-1.95-.4-3-.4h-11.77v25.69h2.45v-11.41h9.28c1.15-.05,2.06.14,2.72.58.66.43,1.16,1,1.51,1.71.35.71.58,1.51.68,2.41.11.9.19,1.81.23,2.72.02.26.05.58.07.94.02.36.05.73.09,1.1.04.37.1.73.18,1.08.08.35.2.64.34.88h2.7c-.26-.31-.47-.75-.63-1.31-.16-.56-.27-1.16-.34-1.8ZM251.61,57.57c-.67.23-1.38.34-2.12.34h-9.14v-10.11h9.14c1.87,0,3.26.46,4.17,1.37.91.91,1.37,2.16,1.37,3.74,0,.79-.15,1.49-.45,2.11-.3.61-.7,1.13-1.21,1.57-.5.43-1.09.76-1.76.99Z"></path>
    <rect fill="#000" x="262.8" y="45.71" width="2.45" height="25.69"></rect>
    <polygon fill="#000" points="273.78 59.17 288.1 59.17 288.1 57.09 273.78 57.09 273.78 47.8 289.07 47.8 289.07 45.71 271.33 45.71 271.33 71.41 289.25 71.41 289.25 69.32 273.78 69.32 273.78 59.17"></polygon>
    <polygon fill="#000" points="311.13 67.45 311.06 67.45 296.09 45.71 293.36 45.71 293.36 71.41 295.8 71.41 295.8 49.67 295.87 49.67 310.85 71.41 313.58 71.41 313.58 45.71 311.13 45.71 311.13 67.45"></polygon>
    <polygon fill="#000" points="316.71 45.71 316.71 47.8 325.64 47.8 325.64 71.41 328.08 71.41 328.08 47.8 337.04 47.8 337.04 45.71 316.71 45.71"></polygon>
  </g><g>
    <path fill="#000" d="M127.96,221.47c-1.25,4.45-4.55,7.79-10.49,7.79-7.95,0-12.06-6.19-12.06-13.86s4.07-14.04,12.15-14.04c6.11,0,9.58,3.44,10.43,7.98h-2.78c-1.12-3.28-3.26-5.56-7.78-5.56-6.41,0-9.08,5.85-9.08,11.55s2.59,11.51,9.23,11.51c4.32,0,6.39-2.34,7.59-5.37h2.78Z"></path>
    <path fill="#000" d="M134.72,201.75h2.78v11.62h15.35v-11.62h2.78v27.19h-2.78v-13.11h-15.35v13.11h-2.78v-27.19Z"></path>
    <path fill="#000" d="M167.49,220.1l-3.22,8.84h-2.79l9.85-27.19h3.37l10.27,27.19h-2.99l-3.3-8.84h-11.18ZM177.87,217.64c-2.83-7.66-4.33-11.5-4.89-13.44h-.04c-.66,2.17-2.34,6.89-4.62,13.44h9.56Z"></path>
    <path fill="#000" d="M190.64,201.75h2.78v24.73h14.41l-.44,2.46h-16.75v-27.19Z"></path>
    <path fill="#000" d="M213.04,201.75h2.78v24.73h14.41l-.44,2.46h-16.75v-27.19Z"></path>
    <path fill="#000" d="M251.89,215.87h-13.71v10.61h15.04l-.38,2.46h-17.4v-27.19h17.13v2.46h-14.39v9.2h13.71v2.46Z"></path>
    <path fill="#000" d="M259.5,228.94v-27.19h3.86c4.08,6.45,13.37,20.88,14.99,23.84h.05c-.25-3.73-.21-7.86-.21-12.29v-11.55h2.71v27.19h-3.6c-3.84-6.12-13.37-21.36-15.21-24.37h-.05c.19,3.36.17,7.61.17,12.53v11.84h-2.72Z"></path>
    <path fill="#000" d="M310.9,228.94h-2.21c-.17-.4-.26-1.72-.3-4.05-1.07,1.89-3.3,4.39-8.63,4.39-7.82,0-11.9-5.95-11.9-13.68,0-8.13,4.36-14.24,12.43-14.24,6.07,0,9.99,3.23,10.81,8.17h-2.78c-1.06-3.48-3.51-5.75-8.11-5.75-6.58,0-9.41,5.17-9.41,11.67,0,5.94,2.78,11.39,9.2,11.39s8.21-4.26,8.21-9.63v-.3h-8.27v-2.46h10.97v14.49Z"></path>
    <path fill="#000" d="M335.34,215.87h-13.71v10.61h15.04l-.38,2.46h-17.4v-27.19h17.13v2.46h-14.39v9.2h13.71v2.46Z"></path>
  </g><path fill="#000" d="M409.74,126.51c.71.56,1.5.95,2.36,1.18.86.22,1.7.34,2.53.34,2.4,0,4.23-.69,5.5-2.08,1.27-1.38,1.91-2.86,1.91-4.44,0-1.27-.21-2.34-.62-3.2-.41-.86-.94-1.57-1.57-2.13-.64-.56-1.33-.97-2.08-1.24-.75-.26-1.46-.39-2.13-.39-1.42,0-2.66.22-3.71.67-1.05.45-1.93,1.01-2.64,1.68-.71.67-1.24,1.4-1.57,2.19-.34.79-.51,1.48-.51,2.08,0,1.27.24,2.34.73,3.2.49.86,1.08,1.57,1.8,2.13Z"></path><path fill="#000" d="M364.06,26.92c1.77-3.85,3.18-7.86,5.32-11.56.9-1.56,1.87-2.27,3.62-2.06.88.11,1.78.05,2.88.08-1.72,2.83-3.45,5.43-4.94,8.16-3.47,6.35-5.96,13.11-8.03,20.04-2.06,6.89-5.13,13.22-10.79,17.95-1.96,1.64-4.07,3.07-6.66,3.75,9.19-6.65,13.32-16.22,15.7-26.8.97-3.19,1.93-6.37,2.9-9.56Z"></path><path fill="#000" d="M68.57,53.5c6.33,7.99,14.22,14.08,23.05,19.04,3.6,2.02,7.4,3.61,11.47,5.25-1.27.69-2.2.12-3.08-.12-19.81-5.37-35.03-16.67-44.88-34.86-.27-.49-.51-.99-.74-1.5-1.89-4.21-1.86-4.48,1.04-8.83,2.06,4.01,3.62,8.15,6.29,11.68,1.98,3.34,4.2,6.5,6.86,9.34Z"></path><path fill="#000" d="M390.76,50.56c2.76-3.42,5.26-7.01,7.26-11.08-.35,4.05-.62,8.12-1.11,12.15-.1.82-.95,1.61-1.58,2.31-11.74,13.05-26.49,20.05-43.87,21.73-.7.07-1.45.26-2.02-.46,11.39-2.45,21.63-7.32,30.78-14.49,4-2.88,7.36-6.42,10.53-10.17Z"></path><path fill="#000" d="M52.94,66.14c3.24,1.69,6.48,3.39,9.72,5.08,3.68,1.85,7.36,3.7,11.03,5.55-.08.18-.15.36-.23.54-12.73-5.01-25.45-10.03-38.29-15.09,2.8-2.26,5.31-2.61,8.36-.68,2.93,1.85,6.25,3.09,9.4,4.6Z"></path><path fill="#000" d="M443.02,156.8c.11-.54.97-2.1,2.58-4.68.75-1.29,1.4-2.42,1.94-3.39,9.79-1.07,15.96-1.96,18.49-2.66,2.53-.7,3.79-1.37,3.79-2.02,0-.54-.89-.81-2.66-.81s-6.81.38-15.1,1.13l-2.1.16,7.75-13.56c.32-.65.91-1.24,1.78-1.78.86-.54,1.67-1.43,2.42-2.66.75-1.24,1.13-2.37,1.13-3.39s-.16-1.75-.48-2.18c-.75-1.18-2.18-1.78-4.28-1.78s-3.37.32-3.79.97c-.22.22-.43.43-.65.65-.22.22-.48.59-.81,1.13-.32.54-.62,1.05-.89,1.53-.27.48-.67,1.19-1.21,2.1-.54.92-1.02,1.8-1.45,2.66l-8.07,15.02c-.32,0-.54.11-.65.32-4.95.22-7.81,1.19-8.56,2.91-.43.97-.38,1.8.16,2.5.54.7,1.37,1.05,2.5,1.05s2.23-.11,3.31-.32c-2.37,4.42-3.55,6.68-3.55,6.78-2.92,4.37-6.89,9.71-11.92,15.99-1.97,2.13-4.16,4.28-6.57,6.45-5.01,4.52-8.91,7.54-11.71,9.04-2.8,1.51-4.95,1.4-6.46-.32-.86-.97-1.29-2.21-1.29-3.71s.05-2.74.16-3.71c.32-3.34,3.55-11.14,9.69-23.41.54-.97,1.07-1.99,1.61-3.07.11-.32.27-.75.48-1.29.21-.54.57-1.26,1.05-2.18.48-.91.62-1.86.4-2.83-.54-1.72-2.15-2.58-4.84-2.58h-1.13c-1.61.32-3.5,3.5-5.65,9.53-.43.86-.54,1.56-.32,2.1-3.01,4.52-7.16,10.07-12.43,16.63-.43.54-.65,1-.65,1.37s.05.67.16.89c.54,1.08,1.29,1.08,2.26,0,3.66-4.2,5.76-6.89,6.3-8.07-3.45,7.64-5.17,13.35-5.17,17.11,0,1.08.11,1.99.32,2.74,1.4,4.09,4.25,6.14,8.56,6.14,1.83,0,4.09-.48,6.78-1.45,4.63-1.72,10.39-6.3,17.28-13.72,1.96-2.11,3.63-4.04,5.02-5.79,2.06-2.48,3.3-4.16,3.69-5.02-3.45,7.64-5.17,13.35-5.17,17.11,0,1.08.11,1.99.32,2.74,1.4,4.09,4.25,6.14,8.56,6.14,1.83,0,4.09-.48,6.78-1.45,4.63-1.72,10.39-6.3,17.28-13.72,7.21-7.75,10.01-12,8.4-12.76-.65-.32-1.19-.21-1.61.32-3.12,4.31-7.18,8.72-12.19,13.24-5.01,4.52-8.91,7.54-11.71,9.04-2.8,1.51-4.95,1.4-6.46-.32-.86-.97-1.29-2.21-1.29-3.71s.05-2.74.16-3.71c.32-3.34,3.55-11.14,9.69-23.41Z"></path></svg>